<svg version="1.1" id="Calque_1" xmlns="http://www.w3.org/2000/svg" x="0" y="0" viewBox="0 0 38 38" style="enable-background:new 0 0 38 38" xml:space="preserve"><style>.st0,.st1,.st15,.st16,.st4,.st5{fill:#bb111e;stroke:#fff;stroke-width:.237;stroke-linecap:round;stroke-linejoin:round;stroke-miterlimit:10}.st1,.st15,.st16,.st4,.st5{fill:#950e12}.st15,.st16,.st4,.st5{fill:#b3101b}.st15,.st16,.st5{fill:#cb1221}.st15,.st16{fill:#bb111e;stroke-width:.1185}.st16{fill:none}</style><path class="st0" d="m14.2 6.5 5.6 6.9-15.7-.8z"/><path class="st1" d="m8.3 12.8 11.5.6-9.1 4.9z"/><path style="fill:#d30018;stroke:#fff;stroke-width:.237;stroke-linecap:round;stroke-linejoin:round;stroke-miterlimit:10" d="m8.4 18.6-4.3 7.6-1.4-7.5z"/><path class="st1" d="m2.7 18.7-2 10.1 3.4-2.6z"/><path style="fill:#d00f1e;stroke:#fff;stroke-width:.237;stroke-linecap:round;stroke-linejoin:round;stroke-miterlimit:10" d="m4.1 12.6 4.3 6-.1-5.8z"/><path class="st4" d="m.7 28.8 3.4-2.6 1 7.1z"/><path class="st5" d="m.7 28.8 4.4 4.5-2.3.4z"/><path class="st4" d="M2.8 33.7 7 33l1.1 3z"/><path style="fill:#e5001c;stroke:#fff;stroke-width:.237;stroke-linecap:round;stroke-linejoin:round;stroke-miterlimit:10" d="m7 33 1.1 3 4.3-4.2z"/><path class="st0" d="m9.2 32.5 3.2-.7-1.3-3.6z"/><path class="st5" d="m10.2 30.3.9-2.1L8 26.8z"/><path style="fill:#980e14;stroke:#fff;stroke-width:.237;stroke-linecap:round;stroke-linejoin:round;stroke-miterlimit:10" d="m8 26.8 1.2 1.8L6.9 30z"/><path style="fill:#d40c20;stroke:#fff;stroke-width:.237;stroke-linecap:round;stroke-linejoin:round;stroke-miterlimit:10" d="m19.8 13.4-5.6-6.9 11.6-2.6z"/><path style="fill:#a20f17;stroke:#fff;stroke-width:.237;stroke-linecap:round;stroke-linejoin:round;stroke-miterlimit:10" d="m37.3 8.1-2.9 6.8-7.4-1.1z"/><path class="st5" d="m31 3.8 6.3 4.3-6.7 3.7z"/><path style="fill:#bb111e;stroke:#fff;stroke-width:.237;stroke-linejoin:round;stroke-miterlimit:10" d="M31 3.8 25.5 2l5.1 9.8z"/><path style="fill:#8d0c10;stroke:#fff;stroke-width:.237;stroke-linecap:round;stroke-linejoin:round;stroke-miterlimit:10" d="M27 13.8 25.5 2l5.1 9.8z"/><path style="fill:#a30f17;stroke:#fff;stroke-width:.237;stroke-linecap:round;stroke-linejoin:round;stroke-miterlimit:10" d="m8.4 18.6-4.3-6-1.4 6.1z"/><path class="st0" d="m8.3 12.8 2.4 5.5-2.2 7.3z"/><path style="fill:#d70a1f;stroke:#fff;stroke-width:.237;stroke-linecap:round;stroke-linejoin:round;stroke-miterlimit:10" d="M19.8 13.4 22 9.9l11.2 8.9z"/><path style="fill:#aa1019;stroke:#fff;stroke-width:.237;stroke-linecap:round;stroke-linejoin:round;stroke-miterlimit:10" d="m25.8 3.9-3.8 6 5 3.9z"/><path class="st15" d="M33.1 5.2c.2 1.1-.6 2-1.6 2.2-1.1.2-2-.6-2.2-1.6-.2-1.1.6-2 1.6-2.2 1.1-.2 2.1.5 2.2 1.6"/><path class="st16" d="M33.1 5.2c.2 1.1-.6 2-1.6 2.2-1.1.2-2-.6-2.2-1.6-.2-1.1.6-2 1.6-2.2 1.1-.2 2.1.5 2.2 1.6z"/><path d="M32.8 5.3c.1.7-.4 1.3-1.1 1.4-.7.1-1.3-.4-1.4-1.1-.1-.7.4-1.3 1.1-1.4.7-.1 1.3.4 1.4 1.1" style="fill:#a20f17;stroke:#fff;stroke-width:.1185;stroke-linecap:round;stroke-linejoin:round;stroke-miterlimit:10"/><path class="st16" d="M32.8 5.3c.1.7-.4 1.3-1.1 1.4-.7.1-1.3-.4-1.4-1.1-.1-.7.4-1.3 1.1-1.4.7-.1 1.3.4 1.4 1.1z"/><path class="st15" d="M32.3 5.4c0 .2-.1.4-.3.4-.2 0-.4-.1-.4-.3 0-.2.1-.4.3-.4.2 0 .3.1.4.3"/><path class="st16" d="M32.3 5.4c0 .2-.1.4-.3.4-.2 0-.4-.1-.4-.3 0-.2.1-.4.3-.4.2 0 .3.1.4.3z"/></svg>